<svg xmlns="http://www.w3.org/2000/svg" xmlns:xlink="http://www.w3.org/1999/xlink" width="200" height="30" viewBox="0 0 200 30"><defs><clipPath id="b"><rect width="200" height="30"/></clipPath></defs><g id="a" clip-path="url(#b)"><g transform="translate(11.854 3.735)"><g transform="translate(0)"><g transform="translate(0)"><path d="M1043.938,122.443c-5.606,0-8.532,3.209-8.532,9.308,0,5.923,2.644,9.2,8.356,9.2,5.606,0,8.567-3.208,8.567-9.308C1052.329,125.687,1049.684,122.443,1043.938,122.443Zm0,14.244c-1.8,0-3-.882-3-5.077,0-3.914,1.163-4.9,2.821-4.9,2.151,0,3.032,1.3,3.032,5.077C1046.793,135.488,1045.982,136.687,1043.938,136.687Z" transform="translate(-1020.597 -118.424)" fill="#fff"/><path d="M958.357,115.259h-6.523a1.009,1.009,0,0,1-.987-.987V98.3a.278.278,0,0,0-.282-.282h-4.83a.311.311,0,0,0-.317.282v17.734a4.168,4.168,0,0,0,4.16,4.16h8.779a.311.311,0,0,0,.317-.282v-4.337A.316.316,0,0,0,958.357,115.259Z" transform="translate(-945.418 -98.018)" fill="#fff"/><path d="M1246.888,124.371h-4.76a.316.316,0,0,0-.317.317V135.9a2.826,2.826,0,0,1-3.032,2.433c-1.622,0-2.327-.917-2.327-2.68V124.688a.316.316,0,0,0-.317-.317h-4.795a.316.316,0,0,0-.317.317v11.388c0,4.16,2.433,6.487,6.311,6.487a7.6,7.6,0,0,0,4.583-1.445.294.294,0,0,1,.494.141l.247.705c.071.176.141.247.317.247h3.914a.326.326,0,0,0,.353-.317V124.688A.326.326,0,0,0,1246.888,124.371Z" transform="translate(-1184.024 -120.034)" fill="#fff"/><path d="M1154.255,115.591a.37.37,0,0,0-.545-.136,3.941,3.941,0,0,1-2.207.708c-1.035,0-1.553-.463-1.553-1.635v-7.682a.343.343,0,0,1,.354-.354h3.759a.322.322,0,0,0,.354-.327v-3.487a.322.322,0,0,0-.354-.327H1150.3a.338.338,0,0,1-.354-.327V98.347a.315.315,0,0,0-.327-.327h-2.833a.336.336,0,0,0-.354.327,4.1,4.1,0,0,1-3.787,4.007.3.3,0,0,0-.327.327v3.485a.314.314,0,0,0,.327.327h1.58a.361.361,0,0,1,.354.354v7.709c0,3.923,1.771,5.993,5.83,5.993a9.55,9.55,0,0,0,4.958-1.144.34.34,0,0,0,.109-.354Z" transform="translate(-1109.921 -98.02)" fill="#fff"/><path d="M1341.1,138.219a.337.337,0,0,1,0-.463l2.044-3.188c.109-.191.327-.136.463-.054a8.958,8.958,0,0,0,5.286,2.126c.627,0,1.744-.191,1.744-1.172,0-.736-1.308-1.281-2.725-1.717-2.425-.763-5.723-1.935-5.723-5.641,0-2.78,2.371-5.668,6.976-5.668a9.457,9.457,0,0,1,6.649,2.371.336.336,0,0,1,0,.463l-2.425,3c-.109.136-.327.055-.463-.027a7.337,7.337,0,0,0-3.87-1.444c-.872,0-1.444.382-1.444,1.036,0,.763,1.281,1.226,2.752,1.744,2.425.872,5.668,1.908,5.668,5.586,0,2.78-2.289,5.75-7.385,5.75A11.735,11.735,0,0,1,1341.1,138.219Z" transform="translate(-1275.915 -118.422)" fill="#fff"/></g><g transform="translate(81.366)"><g transform="translate(7.497 4.019)"><path d="M1485.527,138.219a.337.337,0,0,1,0-.463l2.044-3.188c.109-.191.327-.136.463-.054a8.957,8.957,0,0,0,5.286,2.126c.627,0,1.744-.191,1.744-1.172,0-.736-1.308-1.281-2.725-1.717-2.425-.763-5.722-1.935-5.722-5.641,0-2.78,2.371-5.668,6.976-5.668a9.457,9.457,0,0,1,6.649,2.371.336.336,0,0,1,0,.463l-2.425,3c-.109.136-.327.055-.463-.027a7.338,7.338,0,0,0-3.87-1.444c-.872,0-1.444.382-1.444,1.036,0,.763,1.281,1.226,2.752,1.744,2.425.872,5.668,1.908,5.668,5.586,0,2.78-2.289,5.75-7.385,5.75A11.735,11.735,0,0,1,1485.527,138.219Z" transform="translate(-1485.435 -122.441)" fill="#fcae00"/></g><g transform="translate(0)"><path d="M1443.908,98.018h0a4.031,4.031,0,0,0-3.482,6.063l2.952,4.749a.629.629,0,0,0,.531.292h0a.63.63,0,0,0,.531-.292l2.951-4.749a4.031,4.031,0,0,0-3.482-6.063Z" transform="translate(-1439.877 -98.018)" fill="#fcae00"/></g></g></g></g></g></svg>